<svg id="visual" viewBox="0 0 960 540" width="960" height="540" xmlns="http://www.w3.org/2000/svg" xmlns:xlink="http://www.w3.org/1999/xlink" version="1.1"><rect x="0" y="0" width="960" height="540" fill="#ffffff"></rect><defs><linearGradient id="grad1_0" x1="43.8%" y1="100%" x2="100%" y2="0%"><stop offset="14.444444444444446%" stop-color="#fbae3c" stop-opacity="1"></stop><stop offset="85.55555555555554%" stop-color="#fbae3c" stop-opacity="1"></stop></linearGradient></defs><defs><linearGradient id="grad1_1" x1="43.8%" y1="100%" x2="100%" y2="0%"><stop offset="14.444444444444446%" stop-color="#fbae3c" stop-opacity="1"></stop><stop offset="85.55555555555554%" stop-color="#ffc880" stop-opacity="1"></stop></linearGradient></defs><defs><linearGradient id="grad1_2" x1="43.8%" y1="100%" x2="100%" y2="0%"><stop offset="14.444444444444446%" stop-color="#ffe3bf" stop-opacity="1"></stop><stop offset="85.55555555555554%" stop-color="#ffc880" stop-opacity="1"></stop></linearGradient></defs><defs><linearGradient id="grad1_3" x1="43.8%" y1="100%" x2="100%" y2="0%"><stop offset="14.444444444444446%" stop-color="#ffe3bf" stop-opacity="1"></stop><stop offset="85.55555555555554%" stop-color="#ffffff" stop-opacity="1"></stop></linearGradient></defs><defs><linearGradient id="grad2_0" x1="0%" y1="100%" x2="56.3%" y2="0%"><stop offset="14.444444444444446%" stop-color="#fbae3c" stop-opacity="1"></stop><stop offset="85.55555555555554%" stop-color="#fbae3c" stop-opacity="1"></stop></linearGradient></defs><defs><linearGradient id="grad2_1" x1="0%" y1="100%" x2="56.3%" y2="0%"><stop offset="14.444444444444446%" stop-color="#ffc880" stop-opacity="1"></stop><stop offset="85.55555555555554%" stop-color="#fbae3c" stop-opacity="1"></stop></linearGradient></defs><defs><linearGradient id="grad2_2" x1="0%" y1="100%" x2="56.3%" y2="0%"><stop offset="14.444444444444446%" stop-color="#ffc880" stop-opacity="1"></stop><stop offset="85.55555555555554%" stop-color="#ffe3bf" stop-opacity="1"></stop></linearGradient></defs><defs><linearGradient id="grad2_3" x1="0%" y1="100%" x2="56.3%" y2="0%"><stop offset="14.444444444444446%" stop-color="#ffffff" stop-opacity="1"></stop><stop offset="85.55555555555554%" stop-color="#ffe3bf" stop-opacity="1"></stop></linearGradient></defs><g transform="translate(960, 540)"><path d="M-346 0C-345.6 -48.4 -345.2 -96.7 -324.3 -134.3C-303.4 -171.9 -262 -198.7 -226.3 -226.3C-190.5 -253.9 -160.4 -282.3 -123.6 -298.4C-86.8 -314.5 -43.4 -318.3 0 -322L0 0Z" fill="#fff1df"></path><path d="M-259.5 0C-259.2 -36.3 -258.9 -72.6 -243.2 -100.7C-227.5 -128.9 -196.5 -149 -169.7 -169.7C-142.9 -190.4 -120.3 -211.7 -92.7 -223.8C-65.1 -235.9 -32.6 -238.7 0 -241.5L0 0Z" fill="#ffd69f"></path><path d="M-173 0C-172.8 -24.2 -172.6 -48.4 -162.1 -67.2C-151.7 -85.9 -131 -99.3 -113.1 -113.1C-95.3 -126.9 -80.2 -141.2 -61.8 -149.2C-43.4 -157.3 -21.7 -159.1 0 -161L0 0Z" fill="#ffbb5f"></path><path d="M-86.5 0C-86.4 -12.1 -86.3 -24.2 -81.1 -33.6C-75.8 -43 -65.5 -49.7 -56.6 -56.6C-47.6 -63.5 -40.1 -70.6 -30.9 -74.6C-21.7 -78.6 -10.9 -79.6 0 -80.5L0 0Z" fill="#fbae3c"></path></g><g transform="translate(0, 0)"><path d="M325 0C320.4 41 315.8 82.1 305.8 126.7C295.9 171.2 280.6 219.3 248.2 248.2C215.8 277 166.3 286.6 122.1 294.7C77.9 302.8 38.9 309.4 0 316L0 0Z" fill="#fff1df"></path><path d="M243.8 0C240.3 30.8 236.8 61.6 229.4 95C221.9 128.4 210.4 164.5 186.1 186.1C161.9 207.8 124.7 215 91.6 221C58.4 227.1 29.2 232.1 0 237L0 0Z" fill="#ffd69f"></path><path d="M162.5 0C160.2 20.5 157.9 41 152.9 63.3C147.9 85.6 140.3 109.7 124.1 124.1C107.9 138.5 83.1 143.3 61 147.4C38.9 151.4 19.5 154.7 0 158L0 0Z" fill="#ffbb5f"></path><path d="M81.3 0C80.1 10.3 78.9 20.5 76.5 31.7C74 42.8 70.1 54.8 62 62C54 69.3 41.6 71.7 30.5 73.7C19.5 75.7 9.7 77.4 0 79L0 0Z" fill="#fbae3c"></path></g></svg>